<?xml version="1.0" encoding="utf-8"?>
<!-- Generator: Adobe Illustrator 25.0.0, SVG Export Plug-In . SVG Version: 6.00 Build 0)  -->
<svg version="1.1" id="Layer_1" xmlns="http://www.w3.org/2000/svg" xmlns:xlink="http://www.w3.org/1999/xlink" x="0px" y="0px"
	 viewBox="0 0 1000 100" style="enable-background:new 0 0 1000 100;" xml:space="preserve">
<style type="text/css">
	.st0{fill:url(#SVGID_1_);}
	.st1{fill:url(#SVGID_2_);}
	.st2{fill:url(#SVGID_3_);}
	.st3{fill:url(#SVGID_4_);}
	.st4{fill:url(#SVGID_5_);}
	.st5{fill:url(#SVGID_6_);}
	.st6{fill:url(#SVGID_7_);}
	.st7{fill:url(#SVGID_8_);}
	.st8{fill:url(#SVGID_9_);}
	.st9{fill:url(#SVGID_10_);}
	.st10{fill:url(#SVGID_11_);}
	.st11{fill:url(#SVGID_12_);}
	.st12{fill:url(#SVGID_13_);}
	.st13{fill:url(#SVGID_14_);}
	.st14{fill:url(#SVGID_15_);}
	.st15{fill:url(#SVGID_16_);}
	.st16{fill:url(#SVGID_17_);}
	.st17{fill:url(#SVGID_18_);}
	.st18{fill:url(#SVGID_19_);}
	.st19{fill:url(#SVGID_20_);}
	.st20{fill:url(#SVGID_21_);}
	.st21{fill:url(#SVGID_22_);}
	.st22{fill:url(#SVGID_23_);}
	.st23{fill:url(#SVGID_24_);}
	.st24{fill:url(#SVGID_25_);}
	.st25{fill:url(#SVGID_26_);}
	.st26{fill:url(#SVGID_27_);}
	.st27{fill:url(#SVGID_28_);}
	.st28{fill:url(#SVGID_29_);}
	.st29{fill:url(#SVGID_30_);}
	.st30{fill:url(#SVGID_31_);}
	.st31{fill:url(#SVGID_32_);}
	.st32{fill:url(#SVGID_33_);}
	.st33{fill:url(#SVGID_34_);}
	.st34{fill:url(#SVGID_35_);}
	.st35{fill:url(#SVGID_36_);}
	.st36{fill:url(#SVGID_37_);}
	.st37{fill:url(#SVGID_38_);}
	.st38{fill:url(#SVGID_39_);}
	.st39{fill:url(#SVGID_40_);}
	.st40{fill:url(#SVGID_41_);}
	.st41{fill:url(#SVGID_42_);}
	.st42{fill:url(#SVGID_43_);}
	.st43{fill:url(#SVGID_44_);}
	.st44{fill:url(#SVGID_45_);}
	.st45{fill:url(#SVGID_46_);}
	.st46{fill:url(#SVGID_47_);}
	.st47{fill:url(#SVGID_48_);}
	.st48{fill:url(#SVGID_49_);}
	.st49{fill:url(#SVGID_50_);}
	.st50{fill:url(#SVGID_51_);}
	.st51{fill:url(#SVGID_52_);}
	.st52{fill:url(#SVGID_53_);}
	.st53{fill:url(#SVGID_54_);}
	.st54{fill:url(#SVGID_55_);}
	.st55{fill:url(#SVGID_56_);}
	.st56{fill:url(#SVGID_57_);}
	.st57{fill:url(#SVGID_58_);}
	.st58{fill:url(#SVGID_59_);}
</style>
<g>
	<g>
		<linearGradient id="SVGID_1_" gradientUnits="userSpaceOnUse" x1="37.0954" y1="93.583" x2="56.1157" y2="56.1982">
			<stop  offset="0" style="stop-color:#00A4E7"/>
			<stop  offset="1" style="stop-color:#0053CB"/>
		</linearGradient>
		<path class="st0" d="M87.46,65.05c0,0,4.9,30.76-39.62,33.53c-5.45,0.2-13.28-0.05-22.13-2.28C15.52,93.74,2.09,88.38,0,86.41
			l11.77-19.14c1.57,1.45,15.04,13.64,28.13,12.62c1.43-0.11,4.76-0.37,7.94-2.29c3.37-2.04,6.29-5.72,5.85-9.5
			c-0.59-5.15-7.01-9.84-15.69-10.32C38,57.78,72.29,42.56,87.46,65.05z"/>
		<linearGradient id="SVGID_2_" gradientUnits="userSpaceOnUse" x1="38.5741" y1="9.0161" x2="69.5066" y2="69.2092">
			<stop  offset="0" style="stop-color:#00ACE7"/>
			<stop  offset="1" style="stop-color:#0083E8"/>
		</linearGradient>
		<path class="st1" d="M82.81,7.41l-12,19.04c0,0-11.18-8.28-19.82-6.28c-8.64,2.01-14.13,10.75,0,16.84
			c14.13,6.09,34.87,7.28,36.47,28.03c0,0,2.32,17.6-14.13,26.82c0.67-0.82,10.51-13.2,3.59-23.88c-2.81-4.33-6.47-6.79-8.89-7.88
			c-11.8-5.28-26.46-3.17-30.03-2.33c0,0-36.27-3.88-28.88-33.22C16.53-4.78,50.84-3.7,82.81,7.41z"/>
		<linearGradient id="SVGID_3_" gradientUnits="userSpaceOnUse" x1="11.0486" y1="89.0883" x2="33.2473" y2="45.4562">
			<stop  offset="0" style="stop-color:#00A4E7"/>
			<stop  offset="1" style="stop-color:#0053CB"/>
		</linearGradient>
		<path class="st2" d="M52.98,56.61c0,0-27.3,2.53-42.94-15.47c0,0,4.99,14.7,32.17,17.23C42.21,58.37,49.72,58.37,52.98,56.61z"/>
		<linearGradient id="SVGID_4_" gradientUnits="userSpaceOnUse" x1="9.595" y1="65.3553" x2="79.7522" y2="65.3553">
			<stop  offset="0" style="stop-color:#FFFFFF"/>
			<stop  offset="1" style="stop-color:#008CFF"/>
		</linearGradient>
		<path class="st3" d="M74.97,89.57c1.9-3.24,3.24-6.72,3.72-10.27c0.53-3.53,0.06-7.2-1.75-10.41c-0.9-1.6-2.17-3.04-3.53-4.43
			c-1.36-1.39-2.88-2.67-4.6-3.71c-3.43-2.14-7.84-2.9-12.13-3.25c-4.34-0.25-8.79-0.33-13.19-0.67c-4.42-0.34-8.82-1.11-12.97-2.41
			c-4.15-1.3-8.08-3.07-11.56-5.33c-3.46-2.27-6.44-4.99-8.92-7.96c5.23,5.8,12.52,10.28,20.77,12.64
			c4.12,1.18,8.41,1.96,12.76,2.25c4.38,0.31,8.75,0.35,13.2,0.59c4.39,0.38,8.99,1.19,12.63,3.48c1.81,1.11,3.37,2.45,4.74,3.88
			c1.38,1.42,2.67,2.94,3.56,4.64c1.8,3.38,2.16,7.16,1.51,10.74C78.55,82.95,77.03,86.39,74.97,89.57z"/>
		<linearGradient id="SVGID_5_" gradientUnits="userSpaceOnUse" x1="43.4823" y1="54.4727" x2="43.9971" y2="65.1367">
			<stop  offset="0" style="stop-color:#0053CB"/>
			<stop  offset="1" style="stop-color:#00A4E7"/>
		</linearGradient>
		<path class="st4" d="M40.35,58.17c0,0,4.45,0.55,6.71,1.93C47.06,60.11,42.79,57.42,40.35,58.17z"/>
	</g>
	<g>
		<linearGradient id="SVGID_6_" gradientUnits="userSpaceOnUse" x1="357.6524" y1="1.6349" x2="306.4099" y2="26.2708">
			<stop  offset="0" style="stop-color:#0083E8"/>
			<stop  offset="0.3614" style="stop-color:#0083E8"/>
			<stop  offset="1" style="stop-color:#292D95"/>
		</linearGradient>
		<path class="st5" d="M260.98,45.1c0.92-15.5,4.73-23.72,19.28-33.38c11.41-7.55,24.34-11.33,38.78-11.33
			c8.28,0,17.29,1.58,27.02,4.74v23.34c-2.86-2.86-19.61-4.45-25.72-4.45c-7.73,0-14.46,1.9-20.18,5.71
			c-7.23,4.82-10.84,11.41-10.84,19.76c0,0-25.71-4-21.79,23.31C267.54,72.79,260.25,57.32,260.98,45.1z"/>
		<linearGradient id="SVGID_7_" gradientUnits="userSpaceOnUse" x1="308.1693" y1="2.9805" x2="280.7351" y2="47.4745">
			<stop  offset="0" style="stop-color:#0083E8"/>
			<stop  offset="0.3614" style="stop-color:#0083E8"/>
			<stop  offset="1" style="stop-color:#292D95"/>
		</linearGradient>
		<path class="st6" d="M336.8,2.56c-6.25-1.44-12.18-2.17-17.76-2.17c-14.44,0-27.36,3.78-38.77,11.33
			c-14.55,9.66-18.36,17.88-19.28,33.38c-0.73,12.22,6.56,27.7,6.56,27.7c-3.92-27.3,21.79-23.31,21.79-23.31
			c0-8.35,3.61-14.94,10.84-19.76c3-2,6.29-3.46,9.85-4.41C310.33,20.88,313.58,9.76,336.8,2.56z"/>
		<linearGradient id="SVGID_8_" gradientUnits="userSpaceOnUse" x1="268.7504" y1="23.4013" x2="320.9782" y2="92.11">
			<stop  offset="0" style="stop-color:#0083E8"/>
			<stop  offset="0.3614" style="stop-color:#0083E8"/>
			<stop  offset="1" style="stop-color:#292D95"/>
		</linearGradient>
		<path class="st7" d="M274.04,16.32c-6.77,26.09,15.37,31.03,15.37,31.03c-0.22,11.38,3.53,17.32,10.75,22.14
			c5.72,3.81,12.44,5.71,20.18,5.71c6.1,0,22.86-1.59,25.72-4.45v23.34c-9.74,3.16-18.74,4.74-27.02,4.74
			c-14.44,0-27.36-3.78-38.78-11.33c-14.55-9.66-21.8-22.25-21.82-37.77C258.41,28.46,274.04,16.32,274.04,16.32z"/>
		<g>
			<linearGradient id="SVGID_9_" gradientUnits="userSpaceOnUse" x1="295.4472" y1="80.7178" x2="373.8189" y2="89.8918">
				<stop  offset="0" style="stop-color:#0083E8"/>
				<stop  offset="0.3614" style="stop-color:#0083E8"/>
				<stop  offset="1" style="stop-color:#292D95"/>
			</linearGradient>
			<path class="st8" d="M320.34,75.21c-1.32,0-2.61-0.08-3.87-0.19l-0.01,0.04c0,0-2.63,13.62-28.91,16.6
				c9.55,4.75,20.03,7.17,31.48,7.17c8.28,0,17.29-1.58,27.02-4.74V70.76C343.2,73.61,326.44,75.21,320.34,75.21z"/>
		</g>
		<linearGradient id="SVGID_10_" gradientUnits="userSpaceOnUse" x1="287.4896" y1="83.3618" x2="317.0065" y2="83.3618">
			<stop  offset="0" style="stop-color:#FFFFFF"/>
			<stop  offset="1" style="stop-color:#008CFF"/>
		</linearGradient>
		<path class="st9" d="M316.46,75.06c-0.42,2.57-1.85,4.99-3.73,7.1c-1.89,2.12-4.37,3.85-7.04,5.28l-2.09,0.97
			c-0.71,0.29-1.46,0.54-2.18,0.8c-1.44,0.57-2.99,0.9-4.5,1.3c-1.54,0.33-3.1,0.54-4.65,0.81c-1.58,0.12-3.15,0.26-4.72,0.34
			c1.54-0.29,3.08-0.52,4.61-0.78c1.5-0.36,3.03-0.64,4.5-1.04c2.93-0.85,5.84-1.77,8.42-3.17c2.63-1.32,5-2.98,6.96-4.93
			C314,79.78,315.59,77.54,316.46,75.06z"/>
		<linearGradient id="SVGID_11_" gradientUnits="userSpaceOnUse" x1="272.0053" y1="31.8381" x2="289.5845" y2="31.8381">
			<stop  offset="0" style="stop-color:#FFFFFF"/>
			<stop  offset="1" style="stop-color:#008CFF"/>
		</linearGradient>
		<path class="st10" d="M289.41,47.35c-3.58-0.94-6.84-2.68-9.53-4.88c-2.71-2.2-4.73-4.93-6.09-7.85c-1.16-2.98-1.73-6.1-1.62-9.2
			c0.03-1.55,0.37-3.08,0.54-4.61c0.43-1.5,0.85-3,1.33-4.49l-0.78,4.55c-0.06,1.52-0.3,3.04-0.23,4.56
			c0.06,3.03,0.61,6.04,1.81,8.89C277.29,39.98,282.61,44.76,289.41,47.35z"/>
		<linearGradient id="SVGID_12_" gradientUnits="userSpaceOnUse" x1="309.4518" y1="13.9397" x2="337.0039" y2="13.9397">
			<stop  offset="0" style="stop-color:#FFFFFF"/>
			<stop  offset="1" style="stop-color:#008CFF"/>
		</linearGradient>
		<path class="st11" d="M310.01,25.31c-0.15-2.8,1.02-5.56,2.62-8.03c1.64-2.49,3.95-4.63,6.45-6.54c2.53-1.91,5.42-3.44,8.36-4.85
			c1.53-0.62,3.05-1.25,4.59-1.84c1.59-0.5,3.17-1.02,4.77-1.48c-1.5,0.66-3.02,1.26-4.53,1.89l-4.39,2.05
			c-2.81,1.51-5.64,3.01-8.04,4.92c-2.5,1.81-4.72,3.88-6.46,6.22c-0.84,1.18-1.64,2.39-2.19,3.68
			C310.57,22.59,310.15,23.93,310.01,25.31z"/>
	</g>
	<g>
		
			<radialGradient id="SVGID_13_" cx="786.8026" cy="40.796" r="44.3555" gradientTransform="matrix(1.2135 0 0 1 -247.9369 0)" gradientUnits="userSpaceOnUse">
			<stop  offset="0" style="stop-color:#292D95"/>
			<stop  offset="0.6386" style="stop-color:#0083E8"/>
			<stop  offset="1" style="stop-color:#0083E8"/>
		</radialGradient>
		<path class="st12" d="M788.77,99H681.25V0.58h107.51v21.34H723.2v16.8h62.85v21.34H723.2v17.59h65.57V99z"/>
		<linearGradient id="SVGID_14_" gradientUnits="userSpaceOnUse" x1="700.3897" y1="41.9852" x2="704.8981" y2="-0.3936">
			<stop  offset="0" style="stop-color:#292D95"/>
			<stop  offset="0.6386" style="stop-color:#0083E8"/>
			<stop  offset="1" style="stop-color:#0083E8"/>
		</linearGradient>
		<polygon class="st13" points="723.1,49.79 681.25,33.81 681.25,0.58 723.1,0.58 		"/>
		<linearGradient id="SVGID_15_" gradientUnits="userSpaceOnUse" x1="701.2748" y1="87.1057" x2="703.2284" y2="40.2185">
			<stop  offset="0" style="stop-color:#292D95"/>
			<stop  offset="0.6386" style="stop-color:#0083E8"/>
			<stop  offset="1" style="stop-color:#0083E8"/>
		</linearGradient>
		<polygon class="st14" points="723.1,90.07 681.25,74.08 681.25,40.86 723.1,40.86 		"/>
		<linearGradient id="SVGID_16_" gradientUnits="userSpaceOnUse" x1="690.4607" y1="21.5571" x2="794.7755" y2="74.1603">
			<stop  offset="0" style="stop-color:#00A4E7"/>
			<stop  offset="1" style="stop-color:#0070E8"/>
		</linearGradient>
		<path class="st15" d="M681.25,40.66c0,0,4.28,19.67,41.94,19.41l62.86,0V38.73l-62.86,0c-37.66,0.26-41.94-19.41-41.94-19.41
			V40.66z"/>
		<linearGradient id="SVGID_17_" gradientUnits="userSpaceOnUse" x1="681.2545" y1="78.6491" x2="788.7668" y2="78.6491">
			<stop  offset="0" style="stop-color:#00A4E7"/>
			<stop  offset="1" style="stop-color:#0070E8"/>
		</linearGradient>
		<path class="st16" d="M723.19,77.68c-37.66,0.26-41.94-19.41-41.94-19.41v9.8v11.54V99l36.9-0.08c1.62,0.07,3.28,0.12,5.04,0.1
			l65.57-0.06V77.63L723.19,77.68z"/>
		<linearGradient id="SVGID_18_" gradientUnits="userSpaceOnUse" x1="680.4976" y1="67.9842" x2="723.1932" y2="67.9842">
			<stop  offset="0" style="stop-color:#FFFFFF"/>
			<stop  offset="1" style="stop-color:#008CFF"/>
		</linearGradient>
		<path class="st17" d="M681.25,58.27c1.13,2.85,3.02,5.56,5.58,7.98c2.58,2.41,5.71,4.63,9.61,6.25c3.82,1.65,8.08,2.99,12.66,3.73
			c1.11,0.26,2.27,0.41,3.44,0.54l3.5,0.43c2.36,0.22,4.75,0.29,7.14,0.49c-2.4,0.02-4.81,0.03-7.23-0.03l-3.6-0.3
			c-1.21-0.08-2.41-0.2-3.57-0.42l-3.52-0.59c-1.14-0.25-2.25-0.58-3.38-0.86l-1.68-0.45l-1.58-0.57c-1.03-0.4-2.17-0.71-3.1-1.2
			c-3.98-1.75-7.27-4.06-9.71-6.63C683.41,64.05,681.77,61.2,681.25,58.27z"/>
		<linearGradient id="SVGID_19_" gradientUnits="userSpaceOnUse" x1="680.4976" y1="29.0259" x2="723.1932" y2="29.0259">
			<stop  offset="0" style="stop-color:#FFFFFF"/>
			<stop  offset="1" style="stop-color:#008CFF"/>
		</linearGradient>
		<path class="st18" d="M681.25,19.31c1.13,2.85,3.02,5.56,5.58,7.98c2.58,2.41,5.71,4.63,9.61,6.25c3.82,1.65,8.08,2.99,12.66,3.73
			c1.11,0.26,2.27,0.41,3.44,0.54l3.5,0.43c2.36,0.22,4.75,0.29,7.14,0.49c-2.4,0.02-4.81,0.03-7.23-0.03l-3.6-0.3
			c-1.21-0.08-2.41-0.2-3.57-0.42l-3.52-0.59c-1.14-0.25-2.25-0.58-3.38-0.86l-1.68-0.45l-1.58-0.57c-1.03-0.4-2.17-0.71-3.1-1.2
			c-3.98-1.75-7.27-4.06-9.71-6.63C683.41,25.09,681.77,22.24,681.25,19.31z"/>
	</g>
	<g>
		<g id="XMLID_1_">
			<g>
				
					<radialGradient id="SVGID_20_" cx="586.6057" cy="22.0987" r="18.8754" gradientTransform="matrix(3.6057 0 0 3.7845 -1990.6777 -36.2708)" gradientUnits="userSpaceOnUse">
					<stop  offset="0" style="stop-color:#292D95"/>
					<stop  offset="0.6386" style="stop-color:#0083E8"/>
					<stop  offset="1" style="stop-color:#0083E8"/>
				</radialGradient>
				<polygon class="st19" points="152.63,47.36 193.24,99.22 161.7,99.22 130.03,64.8 130.03,99.22 105.64,99.22 105.64,0.79 
					130.03,0.79 130.03,35.33 149.45,0.79 177.75,0.79 				"/>
			</g>
		</g>
		<linearGradient id="SVGID_21_" gradientUnits="userSpaceOnUse" x1="116.7468" y1="57.1158" x2="118.5491" y2="4.3975">
			<stop  offset="0" style="stop-color:#292D95"/>
			<stop  offset="0.5693" style="stop-color:#0083E8"/>
			<stop  offset="1" style="stop-color:#0083E8"/>
		</linearGradient>
		<rect x="105.64" y="0.78" class="st20" width="24.39" height="49.22"/>
		<linearGradient id="SVGID_22_" gradientUnits="userSpaceOnUse" x1="124.5218" y1="51.9569" x2="168.6295" y2="-3.9945">
			<stop  offset="0" style="stop-color:#009FE7"/>
			<stop  offset="1" style="stop-color:#0083E8"/>
		</linearGradient>
		<path class="st21" d="M177.75,0.78h-28.31l-19.41,34.56c0,0-10.19,14.67-24.39,9.5v21.92c0,0,20.86,13.07,47-19.39
			C158.67,39.87,177.75,0.78,177.75,0.78z"/>
		<linearGradient id="SVGID_23_" gradientUnits="userSpaceOnUse" x1="105.4984" y1="40.7588" x2="130.3874" y2="40.7588">
			<stop  offset="0" style="stop-color:#FFFFFF"/>
			<stop  offset="1" style="stop-color:#008CFF"/>
		</linearGradient>
		<path class="st22" d="M130.03,35.34c-1.27,2.05-2.89,3.84-4.67,5.43c-1.79,1.58-3.82,2.87-5.98,3.87
			c-2.17,0.97-4.53,1.48-6.88,1.53c-2.37,0.13-4.69-0.52-6.86-1.33c2.28,0.44,4.55,0.89,6.83,0.61c2.25-0.2,4.51-0.68,6.57-1.67
			c2.1-0.89,4.06-2.14,5.9-3.57C126.76,38.76,128.48,37.14,130.03,35.34z"/>
		<linearGradient id="SVGID_24_" gradientUnits="userSpaceOnUse" x1="105.4494" y1="58.5852" x2="152.9868" y2="58.5852">
			<stop  offset="0" style="stop-color:#FFFFFF"/>
			<stop  offset="1" style="stop-color:#008CFF"/>
		</linearGradient>
		<path class="st23" d="M152.67,47.4c-2.8,3.75-5.98,7.18-9.4,10.31c-3.46,3.09-7.18,5.9-11.27,8.05c-2.04,1.08-4.15,2.03-6.34,2.73
			c-2.2,0.67-4.47,1.12-6.77,1.31c-2.3,0.11-4.61-0.07-6.85-0.56c-2.25-0.49-4.39-1.39-6.42-2.44l0.04-0.08
			c2.12,0.83,4.28,1.53,6.5,1.88c2.22,0.34,4.45,0.47,6.68,0.27c4.45-0.36,8.8-1.74,12.85-3.78c4.06-2.03,7.8-4.74,11.29-7.74
			c3.48-3.02,6.74-6.35,9.62-10.01L152.67,47.4z"/>
	</g>
	<g>
		
			<radialGradient id="SVGID_25_" cx="731.2714" cy="-79.5849" r="15.9086" gradientTransform="matrix(3.3734 0 0 3.7828 -1986.175 327.1105)" gradientUnits="userSpaceOnUse">
			<stop  offset="0" style="stop-color:#292D95"/>
			<stop  offset="0.6386" style="stop-color:#0083E8"/>
			<stop  offset="1" style="stop-color:#0083E8"/>
		</radialGradient>
		<rect x="469.67" y="1.6" class="st24" width="22.82" height="98.4"/>
		<linearGradient id="SVGID_26_" gradientUnits="userSpaceOnUse" x1="545.8796" y1="84.9554" x2="545.8796" y2="20.0463">
			<stop  offset="0" style="stop-color:#292D95"/>
			<stop  offset="1" style="stop-color:#0083E8"/>
		</linearGradient>
		<rect x="534.47" y="1.6" class="st25" width="22.82" height="98.4"/>
		<linearGradient id="SVGID_27_" gradientUnits="userSpaceOnUse" x1="469.6689" y1="50.7795" x2="557.2901" y2="50.7795">
			<stop  offset="0" style="stop-color:#00ACE7"/>
			<stop  offset="1" style="stop-color:#0083E8"/>
		</linearGradient>
		<path class="st26" d="M537.74,65.76L492.49,1.56h-22.82V1.6v5.22v1.23v8.99v6.85c3.36-5.68,14.09,5.54,19.55,11.9L534.47,100
			h22.82v-0.04v-5.22v-1.23v-8.99v-6.85C553.93,83.35,543.2,72.13,537.74,65.76z"/>
		<linearGradient id="SVGID_28_" gradientUnits="userSpaceOnUse" x1="534.1493" y1="70.1783" x2="557.6108" y2="70.1783">
			<stop  offset="0" style="stop-color:#FFFFFF"/>
			<stop  offset="1" style="stop-color:#008CFF"/>
		</linearGradient>
		<path class="st27" d="M534.47,61.13c1.7,1.96,3.4,3.92,5.13,5.83c1.74,1.9,3.48,3.8,5.33,5.54c1.81,1.79,3.73,3.45,5.8,4.81
			c1.04,0.66,2.14,1.23,3.3,1.46c1.15,0.26,2.41-0.08,3.26-1.09c-0.7,1.15-2.06,1.68-3.31,1.54c-1.26-0.15-2.44-0.67-3.55-1.28
			c-2.21-1.27-4.16-2.98-6.04-4.74c-1.83-1.83-3.6-3.73-5.25-5.75C537.49,65.42,535.91,63.34,534.47,61.13z"/>
		<linearGradient id="SVGID_29_" gradientUnits="userSpaceOnUse" x1="492.8098" y1="31.0248" x2="469.3481" y2="31.0248">
			<stop  offset="0" style="stop-color:#FFFFFF"/>
			<stop  offset="1" style="stop-color:#008CFF"/>
		</linearGradient>
		<path class="st28" d="M492.49,40.08c-1.7-1.96-3.4-3.92-5.13-5.83c-1.74-1.9-3.48-3.8-5.33-5.54c-1.81-1.79-3.73-3.45-5.8-4.81
			c-1.04-0.66-2.14-1.23-3.3-1.46c-1.15-0.26-2.41,0.08-3.26,1.09c0.7-1.15,2.06-1.68,3.31-1.54c1.26,0.15,2.44,0.67,3.55,1.28
			c2.21,1.27,4.16,2.98,6.04,4.74c1.83,1.83,3.6,3.73,5.25,5.75C489.47,35.78,491.05,37.86,492.49,40.08z"/>
		<g>
			
				<radialGradient id="SVGID_30_" cx="762.6849" cy="-79.997" r="15.9086" gradientTransform="matrix(3.3734 0 0 3.7828 -1986.175 327.1105)" gradientUnits="userSpaceOnUse">
				<stop  offset="0" style="stop-color:#292D95"/>
				<stop  offset="0.6386" style="stop-color:#0083E8"/>
				<stop  offset="1" style="stop-color:#0083E8"/>
			</radialGradient>
			<rect x="575.64" y="0.04" class="st29" width="22.82" height="98.4"/>
			<linearGradient id="SVGID_31_" gradientUnits="userSpaceOnUse" x1="651.8485" y1="83.3964" x2="651.8485" y2="18.4873">
				<stop  offset="0" style="stop-color:#292D95"/>
				<stop  offset="1" style="stop-color:#0083E8"/>
			</linearGradient>
			<rect x="640.44" y="0.04" class="st30" width="22.82" height="98.4"/>
			<linearGradient id="SVGID_32_" gradientUnits="userSpaceOnUse" x1="575.6379" y1="49.2205" x2="663.259" y2="49.2205">
				<stop  offset="0" style="stop-color:#00ACE7"/>
				<stop  offset="1" style="stop-color:#0083E8"/>
			</linearGradient>
			<path class="st31" d="M643.71,64.21L598.46,0h-22.82v0.04v5.22v1.23v8.99v6.85c3.36-5.68,14.09,5.54,19.55,11.9l45.25,64.21
				h22.82V98.4v-5.22v-1.23v-8.99v-6.85C659.9,81.79,649.17,70.57,643.71,64.21z"/>
			<linearGradient id="SVGID_33_" gradientUnits="userSpaceOnUse" x1="640.1182" y1="68.6194" x2="663.5798" y2="68.6194">
				<stop  offset="0" style="stop-color:#FFFFFF"/>
				<stop  offset="1" style="stop-color:#008CFF"/>
			</linearGradient>
			<path class="st32" d="M640.44,59.57c1.7,1.96,3.4,3.92,5.13,5.83c1.74,1.9,3.48,3.8,5.33,5.54c1.81,1.79,3.73,3.45,5.8,4.81
				c1.04,0.66,2.14,1.23,3.3,1.46c1.15,0.26,2.41-0.08,3.26-1.09c-0.7,1.15-2.06,1.68-3.31,1.54c-1.26-0.15-2.44-0.67-3.55-1.28
				c-2.21-1.27-4.16-2.98-6.04-4.74c-1.83-1.83-3.6-3.73-5.25-5.75C643.46,63.86,641.88,61.78,640.44,59.57z"/>
			<linearGradient id="SVGID_34_" gradientUnits="userSpaceOnUse" x1="598.7787" y1="29.4658" x2="575.317" y2="29.4658">
				<stop  offset="0" style="stop-color:#FFFFFF"/>
				<stop  offset="1" style="stop-color:#008CFF"/>
			</linearGradient>
			<path class="st33" d="M598.46,38.52c-1.7-1.96-3.4-3.92-5.13-5.83c-1.74-1.9-3.48-3.8-5.33-5.54c-1.81-1.79-3.73-3.45-5.8-4.81
				c-1.04-0.66-2.14-1.23-3.3-1.46c-1.15-0.26-2.41,0.08-3.26,1.09c0.7-1.15,2.06-1.68,3.31-1.54c1.26,0.15,2.44,0.67,3.55,1.28
				c2.21,1.27,4.16,2.98,6.04,4.74c1.83,1.83,3.6,3.73,5.25,5.75C595.43,34.22,597.02,36.3,598.46,38.52z"/>
		</g>
	</g>
	<g>
		<linearGradient id="SVGID_35_" gradientUnits="userSpaceOnUse" x1="451.5527" y1="50.2033" x2="451.6735" y2="50.2033">
			<stop  offset="0" style="stop-color:#292D95"/>
			<stop  offset="1" style="stop-color:#0083E8"/>
		</linearGradient>
		<path class="st34" d="M451.55,50.2c0.03,0.03,0.08,0.07,0.12,0.1v-0.2C451.63,50.14,451.58,50.17,451.55,50.2z"/>
		
			<radialGradient id="SVGID_36_" cx="344.5577" cy="70.7575" r="12.8888" gradientTransform="matrix(3.1717 0 0 3.5603 -705.5956 -222.1445)" gradientUnits="userSpaceOnUse">
			<stop  offset="0" style="stop-color:#292D95"/>
			<stop  offset="1" style="stop-color:#0083E8"/>
		</radialGradient>
		<path class="st35" d="M451.67,50.1c-0.05,0.03-0.09,0.07-0.12,0.1c-5.37,4.9-11.9,8.25-19.06,9.42c0.91-2.95,1.39-6.13,1.39-9.42
			c0-3.29-0.48-6.47-1.39-9.44c-3.48-11.52-13.18-19.8-24.63-19.8c-2.72,0-5.35,0.48-7.83,1.36c-3.58-3.85-7.83-6.94-12.52-9.04
			c-2.01-0.92-4.11-1.65-6.27-2.16c2.24-1.95,4.66-3.65,7.21-5.06c5.85-3.26,12.44-5.09,19.41-5.09
			C432.04,0.97,451.63,22.97,451.67,50.1z"/>
		
			<radialGradient id="SVGID_37_" cx="363.941" cy="74.2529" r="13.9325" gradientTransform="matrix(3.1717 0 0 3.5603 -705.5956 -222.1445)" gradientUnits="userSpaceOnUse">
			<stop  offset="0" style="stop-color:#292D95"/>
			<stop  offset="1" style="stop-color:#0083E8"/>
		</radialGradient>
		<path class="st36" d="M451.67,50.31c-0.05,27.13-19.64,49.11-43.81,49.11c-6.8,0-13.24-1.73-18.99-4.85h-0.02
			c-0.14-0.07-0.27-0.14-0.41-0.24c-0.67-3.19-1.01-6.5-1.01-9.91c0-4.77,0.68-9.37,1.94-13.66c4.13,4.7,9.69,7.84,15.9,8.52
			c0.85,0.1,1.71,0.15,2.59,0.15c11.44,0,21.15-8.28,24.63-19.8c7.17-1.17,13.7-4.51,19.06-9.42
			C451.58,50.24,451.63,50.27,451.67,50.31z"/>
		<linearGradient id="SVGID_38_" gradientUnits="userSpaceOnUse" x1="388.4519" y1="94.528" x2="388.8602" y2="94.528">
			<stop  offset="0" style="stop-color:#292D95"/>
			<stop  offset="1" style="stop-color:#0083E8"/>
		</linearGradient>
		<path class="st37" d="M388.86,94.56c-0.11,0.07-0.21,0.12-0.33,0.17c-0.03-0.14-0.06-0.27-0.08-0.41
			C388.59,94.43,388.72,94.49,388.86,94.56z"/>
		
			<radialGradient id="SVGID_39_" cx="350.2774" cy="89.3464" r="17.7668" gradientTransform="matrix(3.1717 0 0 3.5603 -705.5956 -222.1445)" gradientUnits="userSpaceOnUse">
			<stop  offset="0" style="stop-color:#292D95"/>
			<stop  offset="1" style="stop-color:#0083E8"/>
		</radialGradient>
		<path class="st38" d="M389.37,29.64c-4.66,5.26-7.53,12.54-7.53,20.57s2.86,15.27,7.53,20.55c-1.25,4.29-1.94,8.89-1.94,13.66
			c0,3.41,0.35,6.72,1.01,9.91c-14.45-8.03-24.4-24.76-24.4-44.12c0-15.93,6.73-30.1,17.19-39.08c2.16,0.51,4.26,1.24,6.27,2.16
			c4.69,2.1,8.93,5.19,12.52,9.04C395.95,23.75,392.31,26.29,389.37,29.64z"/>
		<linearGradient id="SVGID_40_" gradientUnits="userSpaceOnUse" x1="388.4519" y1="94.528" x2="388.8602" y2="94.528">
			<stop  offset="0" style="stop-color:#292D95"/>
			<stop  offset="1" style="stop-color:#0083E8"/>
		</linearGradient>
		<path class="st39" d="M388.86,94.56c-0.11,0.07-0.21,0.12-0.33,0.17c-0.03-0.14-0.06-0.27-0.08-0.41
			C388.59,94.43,388.72,94.49,388.86,94.56z"/>
		<linearGradient id="SVGID_41_" gradientUnits="userSpaceOnUse" x1="381.1867" y1="16.7222" x2="400.317" y2="16.7222">
			<stop  offset="0" style="stop-color:#FFFFFF"/>
			<stop  offset="1" style="stop-color:#008CFF"/>
		</linearGradient>
		<path class="st40" d="M400.03,22.32c-2.75-2.62-5.69-4.94-8.82-6.86c-1.55-0.99-3.18-1.81-4.84-2.55
			c-1.65-0.77-3.39-1.26-5.14-1.78c1.8,0.16,3.61,0.5,5.34,1.15c1.74,0.61,3.42,1.43,5.01,2.42c1.59,1,3.12,2.11,4.53,3.4
			C397.54,19.37,398.88,20.75,400.03,22.32z"/>
		<linearGradient id="SVGID_42_" gradientUnits="userSpaceOnUse" x1="432.4436" y1="54.9124" x2="451.8441" y2="54.9124">
			<stop  offset="0" style="stop-color:#FFFFFF"/>
			<stop  offset="1" style="stop-color:#008CFF"/>
		</linearGradient>
		<path class="st41" d="M432.49,59.62c3.45-0.89,6.84-1.97,10.09-3.41c1.62-0.73,3.2-1.57,4.73-2.52c1.5-1,2.92-2.15,4.24-3.48
			c-1.08,1.58-2.45,2.91-3.93,4.05c-1.49,1.12-3.11,2-4.76,2.77c-1.66,0.73-3.37,1.32-5.11,1.75
			C436.02,59.2,434.26,59.54,432.49,59.62z"/>
		<linearGradient id="SVGID_43_" gradientUnits="userSpaceOnUse" x1="386.737" y1="82.5389" x2="389.7421" y2="82.5389">
			<stop  offset="0" style="stop-color:#FFFFFF"/>
			<stop  offset="1" style="stop-color:#008CFF"/>
		</linearGradient>
		<path class="st42" d="M389.37,70.75c-0.82,3.91-1.46,7.82-1.75,11.77c-0.14,1.98-0.16,3.95-0.08,5.93
			c0.13,1.97,0.42,3.93,0.9,5.87c-0.78-1.81-1.24-3.79-1.5-5.8c-0.23-2.01-0.23-4.05-0.1-6.06c0.16-2.01,0.44-4.01,0.86-5.97
			C388.14,74.53,388.65,72.6,389.37,70.75z"/>
	</g>
	<g>
		<linearGradient id="SVGID_44_" gradientUnits="userSpaceOnUse" x1="960.8727" y1="15.4635" x2="954.2755" y2="64.8291">
			<stop  offset="0" style="stop-color:#292D95"/>
			<stop  offset="0.6386" style="stop-color:#0083E8"/>
			<stop  offset="1" style="stop-color:#0083E8"/>
		</linearGradient>
		<path class="st43" d="M939.1,1.4h34.18v98.21H939.1V1.4z"/>
		<linearGradient id="SVGID_45_" gradientUnits="userSpaceOnUse" x1="954.2386" y1="-7.6912" x2="957.1525" y2="21.4479">
			<stop  offset="0" style="stop-color:#00ACE7"/>
			<stop  offset="1" style="stop-color:#0083E8"/>
		</linearGradient>
		<rect x="912.38" y="1.17" class="st44" width="87.62" height="21.3"/>
		<linearGradient id="SVGID_46_" gradientUnits="userSpaceOnUse" x1="942.8104" y1="-15.87" x2="971.7072" y2="43.9306">
			<stop  offset="0" style="stop-color:#292D95"/>
			<stop  offset="0.6386" style="stop-color:#0083E8"/>
			<stop  offset="1" style="stop-color:#0083E8"/>
		</linearGradient>
		<path class="st45" d="M1000,1.17c0,0-16.95,18.31-87.62,21.3H1000V1.17z"/>
		<linearGradient id="SVGID_47_" gradientUnits="userSpaceOnUse" x1="912.3788" y1="11.8172" x2="1000.4898" y2="11.8172">
			<stop  offset="0" style="stop-color:#FFFFFF"/>
			<stop  offset="1" style="stop-color:#008CFF"/>
		</linearGradient>
		<path class="st46" d="M912.38,22.47c3.93-0.17,7.84-0.45,11.74-0.79c3.9-0.32,7.8-0.69,11.67-1.14c7.75-0.89,15.47-1.98,23.03-3.5
			c7.58-1.47,15.03-3.33,22.1-5.83c3.55-1.22,6.97-2.67,10.18-4.33c3.23-1.64,6.27-3.52,8.89-5.71c-4.96,4.59-11.6,8.06-18.66,10.68
			c-7.07,2.66-14.6,4.54-22.21,6.08c-7.65,1.45-15.4,2.57-23.22,3.31C928.11,21.98,920.25,22.43,912.38,22.47z"/>
	</g>
	<g>
		<linearGradient id="SVGID_48_" gradientUnits="userSpaceOnUse" x1="230.4794" y1="15.6156" x2="223.9393" y2="64.5543">
			<stop  offset="0" style="stop-color:#292D95"/>
			<stop  offset="0.6386" style="stop-color:#0083E8"/>
			<stop  offset="1" style="stop-color:#0083E8"/>
		</linearGradient>
		<path class="st47" d="M211.23,1.36h29.21v97.98h-29.21V1.36z"/>
		<linearGradient id="SVGID_49_" gradientUnits="userSpaceOnUse" x1="234.294" y1="68.4686" x2="218.4487" y2="76.2447">
			<stop  offset="0" style="stop-color:#FFFFFF"/>
			<stop  offset="1" style="stop-color:#008CFF"/>
		</linearGradient>
		<path class="st48" d="M211.3,61.28c3.55-0.45,7.23-0.06,10.66,0.97c3.44,1.01,6.57,2.77,9.24,4.93c2.52,2.29,4.61,4.93,6.1,7.8
			c0.77,1.42,1.27,2.95,1.9,4.41c0.41,1.53,0.81,3.05,1.17,4.58l-1.66-4.44c-0.73-1.41-1.3-2.89-2.14-4.24
			c-1.61-2.74-3.62-5.29-6.11-7.45C225.45,63.56,218.45,61.16,211.3,61.28z"/>
		
			<linearGradient id="SVGID_50_" gradientUnits="userSpaceOnUse" x1="862.2469" y1="-115.7575" x2="852.5769" y2="-154.7766" gradientTransform="matrix(-1 0 0 -1 1080.8062 -53.3273)">
			<stop  offset="0" style="stop-color:#009FE7"/>
			<stop  offset="1" style="stop-color:#0083E8"/>
		</linearGradient>
		<path class="st49" d="M211.3,61.28c0,0,22.68-2.65,29.07,22.68l0.07,15.39c0,0-29.21,1.03-29.21,0
			C211.23,98.32,211.3,61.28,211.3,61.28z"/>
		<linearGradient id="SVGID_51_" gradientUnits="userSpaceOnUse" x1="230.7817" y1="0.6158" x2="225.1709" y2="26.4256">
			<stop  offset="0" style="stop-color:#009FE7"/>
			<stop  offset="1" style="stop-color:#0083E8"/>
		</linearGradient>
		<path class="st50" d="M240.37,45.68C233.98,20.35,211.3,23,211.3,23l-0.07-21.63h29.21L240.37,45.68z"/>
		<linearGradient id="SVGID_52_" gradientUnits="userSpaceOnUse" x1="234.2941" y1="30.1857" x2="218.4487" y2="37.9619">
			<stop  offset="0" style="stop-color:#FFFFFF"/>
			<stop  offset="1" style="stop-color:#008CFF"/>
		</linearGradient>
		<path class="st51" d="M211.3,23c3.55-0.45,7.23-0.06,10.66,0.97c3.44,1.01,6.57,2.77,9.24,4.93c2.52,2.29,4.61,4.93,6.1,7.8
			c0.77,1.42,1.27,2.95,1.9,4.41c0.41,1.53,0.81,3.05,1.17,4.58l-1.66-4.44c-0.73-1.41-1.3-2.89-2.14-4.24
			c-1.61-2.74-3.62-5.29-6.11-7.45C225.45,25.28,218.45,22.87,211.3,23z"/>
	</g>
	<g>
		<linearGradient id="SVGID_53_" gradientUnits="userSpaceOnUse" x1="905.9789" y1="2.8042" x2="854.7363" y2="27.44">
			<stop  offset="0" style="stop-color:#0083E8"/>
			<stop  offset="0.3614" style="stop-color:#0083E8"/>
			<stop  offset="1" style="stop-color:#292D95"/>
		</linearGradient>
		<path class="st52" d="M809.3,46.27c0.92-15.5,4.73-23.72,19.28-33.38C840,5.34,852.92,1.56,867.36,1.56
			c8.28,0,17.29,1.58,27.02,4.74v23.34c-2.86-2.86-19.61-4.45-25.72-4.45c-7.73,0-14.46,1.9-20.18,5.71
			c-7.23,4.82-10.84,11.41-10.84,19.76c0,0-25.71-4-21.79,23.31C815.86,73.96,808.58,58.49,809.3,46.27z"/>
		<linearGradient id="SVGID_54_" gradientUnits="userSpaceOnUse" x1="856.4958" y1="4.1497" x2="829.0616" y2="48.6438">
			<stop  offset="0" style="stop-color:#0083E8"/>
			<stop  offset="0.3614" style="stop-color:#0083E8"/>
			<stop  offset="1" style="stop-color:#292D95"/>
		</linearGradient>
		<path class="st53" d="M885.12,3.73c-6.25-1.44-12.18-2.17-17.76-2.17c-14.44,0-27.36,3.78-38.77,11.33
			c-14.55,9.66-18.36,17.88-19.28,33.38c-0.73,12.22,6.56,27.7,6.56,27.7c-3.92-27.3,21.79-23.31,21.79-23.31
			c0-8.35,3.61-14.94,10.84-19.76c3-2,6.29-3.46,9.85-4.41C858.66,22.05,861.91,10.93,885.12,3.73z"/>
		<linearGradient id="SVGID_55_" gradientUnits="userSpaceOnUse" x1="817.0768" y1="24.5705" x2="869.3047" y2="93.2792">
			<stop  offset="0" style="stop-color:#0083E8"/>
			<stop  offset="0.3614" style="stop-color:#0083E8"/>
			<stop  offset="1" style="stop-color:#292D95"/>
		</linearGradient>
		<path class="st54" d="M822.37,17.49c-6.77,26.09,15.37,31.03,15.37,31.03c-0.22,11.38,3.53,17.32,10.75,22.14
			c5.72,3.81,12.44,5.71,20.18,5.71c6.1,0,22.86-1.59,25.72-4.45v23.34c-9.74,3.16-18.74,4.74-27.02,4.74
			c-14.44,0-27.36-3.78-38.77-11.33c-14.55-9.66-21.8-22.25-21.82-37.77C806.74,29.63,822.37,17.49,822.37,17.49z"/>
		<g>
			<linearGradient id="SVGID_56_" gradientUnits="userSpaceOnUse" x1="843.7737" y1="81.887" x2="922.1453" y2="91.061">
				<stop  offset="0" style="stop-color:#0083E8"/>
				<stop  offset="0.3614" style="stop-color:#0083E8"/>
				<stop  offset="1" style="stop-color:#292D95"/>
			</linearGradient>
			<path class="st55" d="M868.66,76.38c-1.32,0-2.61-0.08-3.87-0.19l-0.01,0.04c0,0-2.63,13.62-28.91,16.6
				c9.55,4.75,20.03,7.17,31.48,7.17c8.28,0,17.29-1.58,27.02-4.74V71.92C891.53,74.78,874.77,76.38,868.66,76.38z"/>
		</g>
		<linearGradient id="SVGID_57_" gradientUnits="userSpaceOnUse" x1="835.816" y1="84.531" x2="865.3329" y2="84.531">
			<stop  offset="0" style="stop-color:#FFFFFF"/>
			<stop  offset="1" style="stop-color:#008CFF"/>
		</linearGradient>
		<path class="st56" d="M864.78,76.23c-0.42,2.57-1.85,4.99-3.73,7.1c-1.89,2.12-4.37,3.85-7.04,5.28l-2.09,0.97
			c-0.71,0.29-1.46,0.54-2.18,0.8c-1.44,0.57-2.99,0.9-4.5,1.3c-1.53,0.33-3.1,0.54-4.65,0.81c-1.58,0.12-3.15,0.26-4.72,0.34
			c1.54-0.29,3.08-0.52,4.61-0.78c1.5-0.36,3.03-0.64,4.5-1.04c2.93-0.85,5.84-1.77,8.42-3.17c2.63-1.32,5-2.98,6.96-4.93
			C862.33,80.95,863.92,78.71,864.78,76.23z"/>
		<linearGradient id="SVGID_58_" gradientUnits="userSpaceOnUse" x1="820.3318" y1="33.0074" x2="837.911" y2="33.0074">
			<stop  offset="0" style="stop-color:#FFFFFF"/>
			<stop  offset="1" style="stop-color:#008CFF"/>
		</linearGradient>
		<path class="st57" d="M837.73,48.52c-3.58-0.94-6.84-2.68-9.53-4.88c-2.71-2.2-4.73-4.93-6.09-7.85c-1.16-2.98-1.73-6.1-1.62-9.2
			c0.03-1.55,0.37-3.08,0.54-4.61c0.43-1.5,0.85-3,1.33-4.49l-0.78,4.55c-0.06,1.52-0.3,3.04-0.23,4.56
			c0.06,3.03,0.61,6.04,1.81,8.89C825.62,41.15,830.94,45.93,837.73,48.52z"/>
		<linearGradient id="SVGID_59_" gradientUnits="userSpaceOnUse" x1="857.7783" y1="15.1089" x2="885.3304" y2="15.1089">
			<stop  offset="0" style="stop-color:#FFFFFF"/>
			<stop  offset="1" style="stop-color:#008CFF"/>
		</linearGradient>
		<path class="st58" d="M858.34,26.48c-0.15-2.8,1.02-5.56,2.62-8.03c1.64-2.49,3.95-4.63,6.45-6.54c2.53-1.91,5.42-3.44,8.36-4.85
			c1.53-0.62,3.05-1.25,4.59-1.84c1.59-0.5,3.17-1.02,4.77-1.48c-1.5,0.66-3.02,1.26-4.53,1.89l-4.39,2.05
			c-2.81,1.51-5.64,3.01-8.04,4.92c-2.5,1.81-4.72,3.88-6.46,6.22c-0.84,1.18-1.64,2.39-2.19,3.68
			C858.9,23.76,858.48,25.1,858.34,26.48z"/>
	</g>
</g>
</svg>
